<svg xmlns="http://www.w3.org/2000/svg" viewBox="0 0 256 199">
  <path d="M216.856 16.597A208.502 208.502 0 00164.042 0c-2.275 4.113-4.933 9.645-6.766 14.046-19.692-2.961-39.203-2.961-58.533 0-1.832-4.4-4.55-9.933-6.846-14.046a207.809 207.809 0 00-52.855 16.638C5.618 67.147-3.443 116.4 1.087 164.956c22.169 16.555 43.653 26.612 64.775 33.193a161.094 161.094 0 0013.96-22.765 136.174 136.174 0 01-21.994-10.632 113.43 113.43 0 005.396-4.238c42.482 19.724 88.578 19.724 130.554 0a131.351 131.351 0 005.396 4.238 136.085 136.085 0 01-22.034 10.652 160.79 160.79 0 0013.96 22.765c21.143-6.58 42.646-16.637 64.815-33.213 5.316-56.288-9.08-105.09-38.056-148.36zM85.474 135.095c-12.645 0-23.015-11.805-23.015-26.18s10.149-26.2 23.015-26.2c12.867 0 23.236 11.825 23.015 26.2.02 14.375-10.148 26.18-23.015 26.18zm85.051 0c-12.645 0-23.015-11.805-23.015-26.18s10.148-26.2 23.015-26.2c12.866 0 23.236 11.825 23.015 26.2.02 14.375-10.149 26.18-23.015 26.18z" fill="#000000"/>
</svg>
