<svg viewBox="0 0 100 100" width="100" height="100" xmlns="http://www.w3.org/2000/svg" fill="#000000">
  <!--
    WolfWave Mark — monochrome silhouette (template image)
    Derived from AppIcon.icon/Assets/logo.svg. Used as the branded
    album-art fallback. Keep visually in sync with the inline copy in
    Resources/widget.html (artImg fallback).
  -->

  <!-- EQ bars · left -->
  <rect x="24" y="43" width="3.5" height="30" rx="1.75"/>
  <rect x="19" y="49" width="3.5" height="24" rx="1.75" opacity="0.90"/>
  <rect x="14" y="55" width="3.5" height="18" rx="1.75" opacity="0.73"/>
  <rect x="9"  y="61" width="3.5" height="12" rx="1.75" opacity="0.54"/>
  <rect x="4"  y="66" width="3.5" height="7"  rx="1.75" opacity="0.34"/>
  <rect x="-1" y="69" width="3.5" height="4"  rx="1.75" opacity="0.18"/>

  <!-- EQ bars · right -->
  <rect x="72.5" y="43" width="3.5" height="30" rx="1.75"/>
  <rect x="77.5" y="49" width="3.5" height="24" rx="1.75" opacity="0.90"/>
  <rect x="82.5" y="55" width="3.5" height="18" rx="1.75" opacity="0.73"/>
  <rect x="87.5" y="61" width="3.5" height="12" rx="1.75" opacity="0.54"/>
  <rect x="92.5" y="66" width="3.5" height="7"  rx="1.75" opacity="0.34"/>
  <rect x="97.5" y="69" width="3.5" height="4"  rx="1.75" opacity="0.18"/>

  <!-- Wolf head silhouette -->
  <polygon points="33,41 33,11 45,38"/>
  <polygon points="67,41 67,11 55,38"/>
  <ellipse cx="50" cy="52" rx="18" ry="17.5"/>
  <ellipse cx="50" cy="63" rx="11" ry="8"/>
</svg>
