<svg xmlns="http://www.w3.org/2000/svg" viewBox="0 0 24 24" width="24" height="24"><path fill="#000000" d="M12 24C5.383 24 0 18.617 0 12S5.383 0 12 0s12 5.383 12 12-5.383 12-12 12zm-1.335-4.631c2.098.48 4.258-.169 5.79-1.74a5.668 5.668 0 0 0 1.333-5.951c.388-.067.76-.2 1.097-.398a2.878 2.878 0 0 0 1.378-2.466 2.878 2.878 0 0 0-1.378-2.466 2.849 2.849 0 0 0-3.06.016c-1.592-1.478-3.81-2.079-5.932-1.545a5.678 5.678 0 0 0-4.009 3.86 2.87 2.87 0 0 0-2.182 1.186A2.878 2.878 0 0 0 3.18 12.8a2.878 2.878 0 0 0 2.058 1.762 5.682 5.682 0 0 0 1.591 4.157 5.66 5.66 0 0 0 3.836 1.65zm.08-2.058a3.61 3.61 0 0 1-2.756-1.24 3.63 3.63 0 0 1-.86-2.885l.034-.303-.285-.106a.904.904 0 0 1-.58-.839.904.904 0 0 1 .452-.78l.258-.149-.125-.27A3.627 3.627 0 0 1 7.2 8.186a3.63 3.63 0 0 1 2.564-2.474l.296-.078-.062-.3a.903.903 0 0 1 .391-.903.899.899 0 0 1 .988-.009l.252.164.131-.267a3.623 3.623 0 0 1 3.79-1.982 3.624 3.624 0 0 1 2.841 2.673l.072.298.298-.072a.903.903 0 0 1 .985.44.903.903 0 0 1-.121 1.07l-.192.22.267.133a3.622 3.622 0 0 1 1.85 3.413 3.628 3.628 0 0 1-2.244 3.163l-.285.117.09.293a.901.901 0 0 1-.282.94.901.901 0 0 1-.987.116l-.265-.134-.126.27a3.627 3.627 0 0 1-3.39 2.034z"/></svg>