<svg xmlns="http://www.w3.org/2000/svg" viewBox="0 0 24 24" width="24" height="24"><path fill="#000000" d="M23.994 6.124a9.23 9.23 0 0 0-.24-2.19c-.317-1.31-1.062-2.31-2.18-3.043A5.022 5.022 0 0 0 19.32.089a10.16 10.16 0 0 0-1.898-.066C16.246.006 15.07 0 13.894 0h-3.79c-1.18 0-2.356.006-3.534.024a10.487 10.487 0 0 0-1.858.063C3.614.253 2.676.63 1.89 1.347.99 2.17.454 3.18.162 4.33A8.41 8.41 0 0 0 .01 6.376C.002 7.554 0 8.732 0 9.91v4.178c0 1.18.002 2.358.01 3.536a9.233 9.233 0 0 0 .24 2.19c.317 1.31 1.062 2.31 2.18 3.043a5.02 5.02 0 0 0 2.254.798c.628.085 1.266.105 1.898.066 1.176.018 2.352.024 3.528.024h3.79c1.18 0 2.358-.006 3.536-.024a10.16 10.16 0 0 0 1.898-.066 5.024 5.024 0 0 0 2.254-.798c1.118-.733 1.863-1.733 2.18-3.043a9.23 9.23 0 0 0 .24-2.19c.018-1.178.024-2.356.024-3.536V9.91c0-1.18-.006-2.358-.024-3.536v-.25zm-6.73 5.088v5.3a3.478 3.478 0 0 1-.035.503c-.14.898-.662 1.456-1.53 1.653a3.7 3.7 0 0 1-.92.108c-1.017-.013-1.832-.716-1.965-1.696-.13-.963.393-1.855 1.278-2.164.29-.102.6-.167.898-.255.345-.101.53-.326.538-.69.01-.442.004-.884.004-1.326V9.395c0-.24-.05-.3-.287-.248l-4.09.917c-.074.017-.142.062-.224.1v7.127a3.1 3.1 0 0 1-.042.533c-.148.876-.65 1.43-1.498 1.632a3.557 3.557 0 0 1-.977.117c-1-.02-1.802-.714-1.938-1.678-.138-.979.394-1.874 1.3-2.184.273-.094.56-.155.84-.234.378-.107.557-.33.564-.725.01-.545.004-1.09.004-1.636V7.17c0-.41.105-.537.503-.64l5.54-1.282c.093-.021.19-.03.287-.03.193 0 .31.118.312.313v5.68z"/></svg>