<svg version="1.1" xmlns="http://www.w3.org/2000/svg" x="0px" y="0px"
	 width="100%" viewBox="0 0 500 500" enable-background="new 0 0 500 500" xml:space="preserve">
<path fill="#5CA8C8" opacity="1.000000" stroke="none"
	d="
M301.155945,163.980270
	C299.945862,156.993118 298.735748,150.005981 297.357056,142.045532
	C293.043945,145.284348 289.796234,147.651276 286.629242,150.121750
	C283.535889,152.534821 280.524994,155.053619 277.174225,157.772415
	C284.373047,163.934143 291.041595,170.735107 294.297699,180.576508
	C288.600861,182.149307 286.588745,177.396393 284.434387,174.663635
	C268.053162,153.884460 238.087860,151.713913 219.952454,172.544373
	C217.771500,175.049438 215.436752,177.475403 212.867905,179.562088
	C211.776016,180.449020 209.896820,180.366730 208.375427,180.724915
	C207.970230,180.054443 207.565033,179.383987 207.159836,178.713531
	C212.777222,171.640823 218.394592,164.568100 224.292511,157.142166
	C218.945343,152.925323 212.721985,148.017502 205.420746,142.259644
	C203.828323,148.711746 202.410828,154.455078 200.501709,160.608459
	C198.059448,161.025696 196.108810,161.032883 194.158173,161.040054
	C193.337204,151.263367 197.085464,142.864883 202.024643,134.809479
	C203.428696,132.519562 204.768326,132.594025 206.816483,134.217056
	C213.866318,139.803604 221.068756,145.197205 228.191864,150.691788
	C230.730743,152.650208 232.651855,153.974442 236.629501,152.461411
	C246.010986,148.892868 256.046692,148.856613 265.453339,152.480270
	C269.387573,153.995804 271.222382,152.902054 273.934235,150.692780
	C280.870178,145.042206 288.199738,139.874557 295.130920,134.218445
	C297.939484,131.926575 299.665161,133.307678 300.705841,135.421600
	C304.513763,143.156601 308.777039,150.823166 307.948853,160.765228
	C307.830231,162.355652 307.770050,163.125351 307.301392,163.915741
	C304.980591,163.951035 303.068268,163.965652 301.155945,163.980270
z"/>
<path fill="#20C0EE" opacity="1.000000" stroke="none"
	d="
M238.854446,216.995407
	C238.854446,230.451584 238.854446,243.907761 238.854446,257.518982
	C247.024796,257.518982 254.759827,257.518982 263.004852,257.518982
	C263.004852,244.793167 263.178925,231.850632 262.901611,218.917786
	C262.815430,214.899002 263.816650,211.977142 266.955078,209.509628
	C271.198914,206.172974 275.133606,202.432861 279.469452,199.229279
	C280.896240,198.175095 283.157349,198.250198 285.137115,197.785416
	C286.068024,204.292923 282.088806,207.302139 278.566101,209.661911
	C273.128326,213.304550 270.534729,217.353485 270.826233,224.204529
	C271.384735,237.329529 271.100800,250.496841 270.935760,263.643707
	C270.839539,271.306824 267.387787,277.563782 261.173676,281.907867
	C251.039474,288.992432 242.363525,287.285858 235.415848,276.846893
	C233.678726,274.236816 233.093262,270.860291 232.173431,267.104828
	C232.530899,265.909424 232.833542,265.445801 232.835510,264.980927
	C232.893463,251.292557 232.969101,237.603745 232.877060,223.916107
	C232.868332,222.619736 231.777969,221.330643 231.189774,220.038162
	C231.147385,219.861725 231.104996,219.685272 231.278748,219.082489
	C231.689102,218.426163 231.846024,218.173050 231.965652,217.896805
	C231.965652,217.896805 231.980377,217.461029 232.135803,217.009262
	C230.271072,213.152451 228.095016,209.825897 226.319321,206.297821
	C225.735138,205.137115 226.187286,203.454849 226.165527,202.011078
	C226.729446,202.468353 227.293365,202.925629 228.026489,203.950317
	C228.827179,204.993790 229.458679,205.469864 230.090164,205.945923
	C230.090164,205.945923 230.021606,205.978897 230.094177,206.289780
	C231.932281,209.329758 233.198013,212.714005 237.462952,212.166885
	C237.462952,212.166885 237.749146,212.245346 237.633240,212.746307
	C237.963028,214.496643 238.408737,215.746033 238.854446,216.995407
M260.724640,265.198700
	C253.464874,265.214386 246.087051,263.787354 238.900635,266.546021
	C243.122437,276.168640 249.806046,283.635254 258.463165,274.635315
	C260.387726,272.634552 265.218567,270.230713 260.724640,265.198700
z"/>
<path fill="#43B3D6" opacity="1.000000" stroke="none"
	d="
M194.085205,161.418457
	C196.108810,161.032883 198.059448,161.025696 200.428040,161.022888
	C200.895035,170.044632 200.944077,179.061966 200.545044,188.540680
	C198.067749,189.295425 196.038528,189.588776 194.009293,189.882141
	C193.685196,181.421997 193.329102,172.962769 193.084198,164.500320
	C193.058395,163.608871 193.687164,162.698486 194.085205,161.418457
z"/>
<path fill="#26C1F0" opacity="1.000000" stroke="none"
	d="
M193.691467,190.060059
	C196.038528,189.588776 198.067749,189.295425 200.466858,189.003937
	C199.680069,192.399475 198.820190,195.934586 197.288040,199.149292
	C195.561279,202.772354 193.089188,206.032181 191.193665,209.584671
	C188.461044,214.705933 187.695374,215.082535 180.961411,212.901840
	C185.140091,205.271851 189.256866,197.754913 193.691467,190.060059
z"/>
<path fill="#25BEEE" opacity="1.000000" stroke="none"
	d="
M193.121323,226.808578
	C194.384140,225.699417 195.559738,225.011719 196.735352,224.324020
	C197.154282,225.334610 197.930939,226.342789 197.937729,227.356140
	C198.021271,239.800659 197.992126,252.245941 197.992126,264.639252
	C194.030838,265.676788 192.920288,264.103485 192.958221,260.651642
	C193.080688,249.512177 193.022598,238.370728 193.121323,226.808578
z"/>
<path fill="#26C1F0" opacity="1.000000" stroke="none"
	d="
M308.893036,190.009109
	C312.859070,197.536728 316.825104,205.064331 320.789642,212.589142
	C316.113251,215.286774 313.476349,214.648651 311.013733,210.203690
	C307.982819,204.732910 305.000427,199.235229 302.149475,193.147491
	C302.763977,191.578522 303.226044,190.611221 303.522400,189.990845
	C305.233246,189.990845 306.611145,189.990845 308.215027,189.994904
	C308.441071,189.998947 308.893036,190.009109 308.893036,190.009109
z"/>
<path fill="#43B3D6" opacity="1.000000" stroke="none"
	d="
M307.989014,189.990845
	C306.611145,189.990845 305.233246,189.990845 303.522400,189.990845
	C303.226044,190.611221 302.763977,191.578522 302.078064,192.782547
	C301.563599,189.712387 301.090851,186.409256 301.021942,183.097748
	C300.895905,177.039215 301.008575,170.975723 301.088806,164.447281
	C303.068268,163.965652 304.980591,163.951035 307.360291,164.390045
	C307.881439,173.226059 307.935242,181.608444 307.989014,189.990845
z"/>
<path fill="#26C1F0" opacity="1.000000" stroke="none"
	d="
M296.008820,258.942749
	C296.013672,250.981750 295.927490,243.508041 296.129150,236.042114
	C296.156586,235.025467 297.622314,234.047653 298.422089,233.051849
	C299.268311,233.853134 300.841064,234.645523 300.851013,235.457047
	C300.985077,246.408554 300.917511,257.362854 300.823303,268.315796
	C300.818787,268.838165 300.101959,269.354401 299.583008,270.053894
	C293.301361,268.160950 297.066406,262.951385 296.008820,258.942749
z"/>
<path fill="#25BEEE" opacity="1.000000" stroke="none"
	d="
M200.137222,262.956085
	C200.081284,254.652527 199.916641,246.347107 200.057205,238.046875
	C200.086823,236.297424 201.235687,234.566910 201.868835,232.827667
	C202.508987,232.753326 203.149124,232.678986 203.789261,232.604645
	C204.529388,234.638962 205.854111,236.657928 205.907913,238.710251
	C206.134308,247.343735 206.087204,255.989700 205.882614,264.625000
	C205.838455,266.488983 204.726471,268.327667 203.694168,271.407928
	C201.876038,269.125946 200.932129,267.941193 200.361694,266.435730
	C201.103531,265.847046 201.792191,265.581024 201.793839,265.310822
	C201.849655,256.148926 201.840225,246.986618 201.840225,237.824371
	C201.007843,240.283295 201.090561,242.742126 200.991409,245.193619
	C200.751892,251.116272 200.427429,257.035492 200.137222,262.956085
z"/>
<path fill="#26C1F0" opacity="1.000000" stroke="none"
	d="
M315.818237,262.394623
	C314.369202,263.306915 313.066162,263.790863 310.990326,264.561859
	C310.990326,253.226562 310.921936,242.640366 311.099457,232.058289
	C311.116577,231.036469 312.658569,230.040237 313.492706,229.032135
	C314.329590,230.205948 315.870148,231.366592 315.892395,232.555664
	C316.075684,242.356216 315.977295,252.162048 315.818237,262.394623
z"/>
<path fill="#26C1F0" opacity="1.000000" stroke="none"
	d="
M190.998962,258.727936
	C191.301468,262.613464 190.407196,264.797455 185.992249,263.676361
	C185.992249,253.256699 185.910339,242.793274 186.112228,232.335358
	C186.133667,231.224792 187.817810,230.146317 188.730591,229.052948
	C189.487305,230.299576 190.870651,231.531891 190.899506,232.795151
	C191.093323,241.279526 190.999298,249.770508 190.998962,258.727936
z"/>
<path fill="#25BEEE" opacity="1.000000" stroke="none"
	d="
M216.054199,269.510040
	C216.051529,261.188934 216.051529,253.313446 216.051529,245.600510
	C220.499207,244.418915 222.102158,245.413223 222.031982,249.087311
	C221.905289,255.719788 222.157684,262.363312 221.881760,268.986816
	C221.798264,270.991302 220.494583,272.944977 219.749786,274.921906
	C218.518814,273.266479 217.287842,271.611084 216.054199,269.510040
z"/>
<path fill="#25BEEE" opacity="1.000000" stroke="none"
	d="
M291.134338,240.037567
	C292.045654,240.921402 292.898102,241.793549 292.908783,242.675903
	C293.015320,251.470413 293.024994,260.266998 292.944855,269.061920
	C292.932770,270.390320 292.319550,271.713257 291.984406,273.038727
	C291.461456,273.151001 290.938507,273.263245 290.415558,273.375488
	C289.609436,271.518158 288.168579,269.681458 288.107544,267.799957
	C287.849335,259.842468 287.880249,251.867935 288.124054,243.909393
	C288.164398,242.591553 289.791168,241.322327 291.134338,240.037567
z"/>
<path fill="#25BEEE" opacity="1.000000" stroke="none"
	d="
M212.997101,252.036652
	C212.996841,258.833649 212.996841,265.136475 212.996841,271.572784
	C209.482651,272.548553 207.906265,271.629181 207.962097,267.948334
	C208.083099,259.969452 207.886093,251.984207 208.114975,244.010056
	C208.153671,242.661865 209.669861,241.356064 210.503418,240.030670
	C211.335327,241.373871 212.654327,242.637390 212.890045,244.078140
	C213.287460,246.507080 212.997955,249.048401 212.997101,252.036652
z"/>
<path fill="#25BEEE" opacity="1.000000" stroke="none"
	d="
M284.989624,262.965088
	C284.987946,266.270508 285.209717,269.110168 284.874512,271.882477
	C284.741577,272.982025 283.372650,273.932159 282.566437,274.950287
	C281.711609,273.970001 280.138977,273.006836 280.115082,272.006683
	C279.917572,263.738953 279.924500,255.462433 280.115814,247.194275
	C280.139191,246.184036 281.617737,245.207489 282.421936,244.215332
	C283.276215,245.502945 284.783020,246.749359 284.867310,248.085556
	C285.168884,252.864700 284.988159,257.674255 284.989624,262.965088
z"/>
<path fill="#25BEEE" opacity="1.000000" stroke="none"
	d="
M222.078552,190.063904
	C224.079788,189.616364 226.683823,188.707947 227.913315,189.630798
	C231.562653,192.369995 234.814011,195.701004 237.885132,199.103760
	C238.614609,199.912018 238.031540,201.904938 238.052216,203.352936
	C236.553284,203.173340 234.512283,203.554291 233.647949,202.718460
	C229.605423,198.809250 225.887222,194.564697 222.078552,190.063904
z"/>
<path fill="#26C1F0" opacity="1.000000" stroke="none"
	d="
M278.095886,188.404175
	C278.694000,189.501205 279.734985,191.549164 279.209320,192.098846
	C275.551666,195.923416 271.657654,199.541992 267.614868,202.961090
	C266.817200,203.635696 265.044983,203.158035 263.722229,203.211777
	C263.809631,202.063736 263.529816,200.706894 264.044495,199.801865
	C267.160919,194.322006 271.252197,189.933289 278.095886,188.404175
z"/>
<path fill="#26C1F0" opacity="1.000000" stroke="none"
	d="
M308.055054,232.020813
	C308.023621,233.076431 307.992157,234.132050 307.777527,235.890076
	C307.751007,239.068405 307.907623,241.544327 308.064270,244.020248
	C308.030457,249.359299 307.996643,254.698364 307.832794,260.678864
	C307.827515,261.895355 307.952271,262.470428 308.077026,263.045471
	C307.613251,265.585999 306.801697,267.298035 304.270386,264.028778
	C304.575592,261.592499 304.951935,259.812592 304.965240,258.029999
	C305.032959,248.953369 304.870697,239.871994 305.139984,230.802719
	C305.188019,229.185242 306.888763,227.616837 307.826385,226.025787
	C307.872345,226.457138 307.918304,226.888489 307.791382,227.891617
	C307.764038,229.649185 307.909546,230.835007 308.055054,232.020813
z"/>
<path fill="#25BEEE" opacity="1.000000" stroke="none"
	d="
M226.018097,201.671173
	C226.187286,203.454849 225.735138,205.137115 226.319321,206.297821
	C228.095016,209.825897 230.271072,213.152451 232.112457,216.792511
	C228.299423,213.884262 224.448929,210.951706 221.107742,207.522842
	C218.922592,205.280380 217.475525,202.318695 215.666611,199.632767
	C220.246231,195.861755 222.871765,199.513550 226.018097,201.671173
z"/>
<path fill="#26ADDE" opacity="1.000000" stroke="none"
	d="
M231.113815,220.496933
	C231.777969,221.330643 232.868332,222.619736 232.877060,223.916107
	C232.969101,237.603745 232.893463,251.292557 232.835510,264.980927
	C232.833542,265.445801 232.530899,265.909424 232.123047,266.713776
	C231.583237,265.685791 231.037750,264.318573 231.032974,262.949432
	C230.984222,248.951691 231.023331,234.953659 231.113815,220.496933
z"/>
<path fill="#26ADDE" opacity="1.000000" stroke="none"
	d="
M307.802734,225.666656
	C306.888763,227.616837 305.188019,229.185242 305.139984,230.802719
	C304.870697,239.871994 305.032959,248.953369 304.965240,258.029999
	C304.951935,259.812592 304.575592,261.592499 304.121063,263.713928
	C303.583405,263.023102 303.044617,261.993591 303.037567,260.960480
	C302.967072,250.617996 302.942596,240.274704 302.995178,229.932083
	C303.018982,225.247559 304.534851,223.876648 307.802734,225.666656
z"/>
<path fill="#25BEEE" opacity="1.000000" stroke="none"
	d="
M183.974854,250.129791
	C183.839401,252.010727 184.072800,253.652924 183.450485,254.850388
	C182.938583,255.835449 181.420044,256.793549 180.331024,256.812622
	C179.571976,256.825897 178.395630,255.341995 178.105606,254.326920
	C177.715088,252.960068 177.668396,251.301926 178.074310,249.948853
	C178.596664,248.207642 179.713699,246.644821 180.574585,245.005157
	C181.707550,246.569656 182.840530,248.134171 183.974854,250.129791
z"/>
<path fill="#25BEEE" opacity="1.000000" stroke="none"
	d="
M320.110901,245.052124
	C321.692139,246.243164 323.720947,247.412857 323.802612,248.705536
	C323.967743,251.319717 323.076477,254.000641 322.620850,256.654053
	C321.176361,256.335510 318.464966,255.950348 318.477661,255.708435
	C318.664429,252.156555 319.214111,248.623734 320.110901,245.052124
z"/>
<path fill="#25BEEE" opacity="1.000000" stroke="none"
	d="
M169.069473,251.003891
	C170.102112,248.742508 171.133957,246.896896 172.165787,245.051270
	C173.380478,245.792892 175.584564,246.480026 175.628952,247.286102
	C175.776825,249.971222 175.248993,252.719391 174.701660,255.386246
	C174.628235,255.744003 172.460953,256.239563 172.115295,255.871384
	C170.899063,254.575882 170.054352,252.931580 169.069473,251.003891
z"/>
<path fill="#25BEEE" opacity="1.000000" stroke="none"
	d="
M326.001953,250.996552
	C326.513092,248.751923 327.025513,246.942947 327.537933,245.133972
	C328.720306,245.593018 330.880798,245.977188 330.922607,246.523529
	C331.153748,249.543167 330.868530,252.602356 330.760254,255.647980
	C329.283478,255.373840 327.621735,255.410614 326.410461,254.690125
	C325.833069,254.346664 326.112091,252.563324 326.001953,250.996552
z"/>
<path fill="#25BEEE" opacity="1.000000" stroke="none"
	d="
M334.070831,250.196411
	C335.516083,248.572815 336.937134,247.338669 338.358154,246.104523
	C339.237396,248.204361 340.513763,250.251434 340.803131,252.429657
	C340.921234,253.318802 338.900574,254.492065 337.852905,255.536072
	C336.584137,253.885986 335.315399,252.235931 334.070831,250.196411
z"/>
<path fill="#25BEEE" opacity="1.000000" stroke="none"
	d="
M162.768616,255.224075
	C161.971939,252.636780 161.164719,250.312302 161.212982,248.005722
	C161.227097,247.330429 163.673706,246.706070 165.005432,246.058380
	C165.659943,248.556808 166.554123,251.034454 166.774109,253.570557
	C166.820114,254.100922 164.379303,254.847015 162.768616,255.224075
z"/>
<path fill="#25BEEE" opacity="1.000000" stroke="none"
	d="
M358.635956,250.296356
	C357.415558,252.061539 356.124268,253.760529 354.426270,254.786102
	C353.974854,255.058762 351.578705,253.431000 351.327271,252.377136
	C351.021759,251.096466 351.600098,249.009720 352.572540,248.134186
	C355.190643,245.776962 357.263031,246.808517 358.635956,250.296356
z"/>
<path fill="#25BEEE" opacity="1.000000" stroke="none"
	d="
M348.229095,254.214172
	C346.043945,253.528900 343.997101,252.777161 342.404388,251.471481
	C342.087585,251.211807 343.200409,248.013443 344.206970,247.632980
	C345.501587,247.143616 348.306274,247.672073 348.746399,248.586823
	C349.431519,250.010773 348.673370,252.129120 348.229095,254.214172
z"/>
<path fill="#25BEEE" opacity="1.000000" stroke="none"
	d="
M142.997803,251.792908
	C144.381653,249.930893 145.650116,248.298401 147.271057,247.174057
	C147.539948,246.987534 149.910812,248.851105 150.276505,250.075974
	C150.604523,251.174561 149.901642,253.184204 148.965622,253.940506
	C146.450989,255.972321 144.597534,254.172424 142.997803,251.792908
z"/>
<path fill="#25BEEE" opacity="1.000000" stroke="none"
	d="
M153.446991,247.300446
	C155.216614,247.491928 157.453812,247.506454 157.836609,248.356308
	C158.488342,249.803131 158.401993,251.958908 157.763382,253.446671
	C157.458282,254.157532 155.175415,254.019455 153.788330,254.265869
	C153.552368,252.010330 153.316406,249.754776 153.446991,247.300446
z"/>
<path fill="#26ADDE" opacity="1.000000" stroke="none"
	d="
M200.073853,263.339355
	C200.427429,257.035492 200.751892,251.116272 200.991409,245.193619
	C201.090561,242.742126 201.007843,240.283295 201.840225,237.824371
	C201.840225,246.986618 201.849655,256.148926 201.793839,265.310822
	C201.792191,265.581024 201.103531,265.847046 200.436523,266.078003
	C200.095398,265.268188 200.052933,264.495422 200.073853,263.339355
z"/>
<path fill="#20C0EE" opacity="1.000000" stroke="none"
	d="
M308.215057,189.994904
	C307.935242,181.608444 307.881439,173.226059 307.768738,164.369354
	C307.770050,163.125351 307.830231,162.355652 307.953491,161.204315
	C308.367157,162.311310 309.003052,163.796509 309.020874,165.289078
	C309.115479,173.218750 309.055054,181.150269 308.970673,189.545135
	C308.893036,190.009109 308.441071,189.998947 308.215057,189.994904
z"/>
<path fill="#25BEEE" opacity="1.000000" stroke="none"
	d="
M237.275085,211.917633
	C233.198013,212.714005 231.932281,209.329758 230.110565,206.255463
	C232.398666,207.829636 234.742935,209.749023 237.275085,211.917633
z"/>
<path fill="#26ADDE" opacity="1.000000" stroke="none"
	d="
M308.417786,243.821899
	C307.907623,241.544327 307.751007,239.068405 307.827179,236.283585
	C308.297089,238.524307 308.534180,241.073944 308.417786,243.821899
z"/>
<path fill="#26ADDE" opacity="1.000000" stroke="none"
	d="
M308.377655,231.872650
	C307.909546,230.835007 307.764038,229.649185 307.832642,228.215454
	C308.264618,229.219864 308.482452,230.472183 308.377655,231.872650
z"/>
<path fill="#25BEEE" opacity="1.000000" stroke="none"
	d="
M238.924774,216.645081
	C238.408737,215.746033 237.963028,214.496643 237.674820,212.888733
	C238.219910,213.785034 238.607498,215.039902 238.924774,216.645081
z"/>
<path fill="#26ADDE" opacity="1.000000" stroke="none"
	d="
M308.355042,262.930359
	C307.952271,262.470428 307.827515,261.895355 307.875916,261.142487
	C308.243744,261.581512 308.438385,262.198395 308.355042,262.930359
z"/>
<path fill="#25BEEE" opacity="1.000000" stroke="none"
	d="
M229.985443,205.663971
	C229.458679,205.469864 228.827179,204.993790 228.113281,204.214142
	C228.647507,204.401031 229.264114,204.891525 229.985443,205.663971
z"/>
<path fill="#25BEEE" opacity="1.000000" stroke="none"
	d="
M231.717224,217.983292
	C231.846024,218.173050 231.689102,218.426163 231.339005,218.817047
	C231.278366,218.675217 231.373596,218.372498 231.717224,217.983292
z"/>
<path fill="#091533" opacity="1.000000" stroke="none"
	d="
M261.042358,265.486938
	C265.218567,270.230713 260.387726,272.634552 258.463165,274.635315
	C249.806046,283.635254 243.122437,276.168640 238.900635,266.546021
	C246.087051,263.787354 253.464874,265.214386 261.042358,265.486938
z"/>
</svg>